<svg
   width="1533.5862"
   height="1533.5862"
   viewBox="0 0 405.76134 405.76134"
   version="1.1"
   id="svg1"
   xml:space="preserve"
   xmlns:xlink="http://www.w3.org/1999/xlink"
   xmlns="http://www.w3.org/2000/svg"
   xmlns:svg="http://www.w3.org/2000/svg"><defs
     id="defs1"><linearGradient
       id="swatch4"><stop
         style="stop-color:#000000;stop-opacity:1;"
         offset="0"
         id="stop4" /></linearGradient><linearGradient
       xlink:href="#swatch4"
       id="linearGradient50"
       x1="717.41772"
       y1="357.45209"
       x2="738.31982"
       y2="357.45209"
       gradientUnits="userSpaceOnUse"
       gradientTransform="translate(0.14031651)" /><linearGradient
       xlink:href="#swatch4"
       id="linearGradient487"
       x1="691.02124"
       y1="308.44565"
       x2="744.8645"
       y2="308.44565"
       gradientUnits="userSpaceOnUse" /></defs><g
     id="layer1"
     transform="translate(-524.77057,-117.26483)"><path
       d="m 577.72961,317.4893 -16.83773,17.39946 20.57962,14.77997 39.49165,-6.94944 c -1.4575,-7.15121 -2.21641,-14.47873 -2.2164,-21.88601 0,-1.00568 0.0762,-2.00166 0.1049,-3.00395 z"
       style="baseline-shift:baseline;display:inline;overflow:visible;vector-effect:none;fill:url(#linearGradient37);enable-background:accumulate;stop-color:#000000;stop-opacity:1"
       id="path500" /><path
       d="m 872.79791,292.35698 -37.06027,6.52105 c 1.46683,7.17324 2.2319,14.52394 2.2319,21.95525 0,1.13257 -0.0833,2.25459 -0.11989,3.38274 l 38.69015,0.31988 16.83773,-17.39894 z"
       style="baseline-shift:baseline;display:inline;overflow:visible;vector-effect:none;fill:url(#linearGradient38);enable-background:accumulate;stop-color:#000000;stop-opacity:1"
       id="path499" /><path
       d="m 836.93446,335.68716 c -1.25966,9.16411 -3.65521,18.09777 -7.13238,26.59217 l 40.6771,15.91996 23.8125,-11.8463 -14.55208,-22.34644 z"
       style="baseline-shift:baseline;display:inline;overflow:visible;vector-effect:none;fill:url(#linearGradient34);enable-background:accumulate;stop-color:#000000;stop-opacity:1"
       id="path498" /><path
       d="m 585.53947,263.49466 -23.8125,11.84631 14.55208,22.34644 43.47745,8.45065 c 1.24082,-9.12671 3.61656,-18.02382 7.05694,-26.48986 z"
       style="baseline-shift:baseline;display:inline;overflow:visible;vector-effect:none;fill:url(#linearGradient35);enable-background:accumulate;stop-color:#000000;stop-opacity:1"
       id="path497" /><path
       d="m 823.64948,374.93644 c -4.81878,8.488 -10.76157,16.38087 -17.78444,23.40374 -0.28379,0.28379 -0.59648,0.53013 -0.88315,0.81029 l 34.76584,31.52779 29.55995,-1.49707 -5.05137,-28.24995 z"
       style="baseline-shift:baseline;display:inline;overflow:visible;vector-effect:none;fill:url(#linearGradient30);enable-background:accumulate;stop-color:#000000;stop-opacity:1"
       id="path496" /><path
       d="m 616.14122,210.60849 -29.55995,1.49655 5.05137,28.25047 41.37163,26.48469 c 4.82961,-8.53 10.79374,-16.46058 17.84698,-23.51381 0.21851,-0.21852 0.45881,-0.40889 0.67902,-0.62529 z"
       style="baseline-shift:baseline;display:inline;overflow:visible;vector-effect:none;fill:url(#linearGradient31);enable-background:accumulate;stop-color:#000000;stop-opacity:1"
       id="path495" /><path
       d="m 792.06537,409.9958 c -8.86828,6.33253 -18.60904,11.27275 -28.88455,14.71435 l 22.36711,50.87854 29.10417,11.64167 7.9375,-30.95625 z"
       style="baseline-shift:baseline;display:inline;overflow:visible;vector-effect:none;fill:url(#linearGradient29);enable-background:accumulate;stop-color:#000000;stop-opacity:1"
       id="path494" /><path
       d="m 641.25493,154.04708 -7.9375,30.95625 30.95419,46.93047 c 8.80985,-6.34464 18.49448,-11.30217 28.71142,-14.78256 L 670.3591,165.68875 Z"
       style="baseline-shift:baseline;display:inline;overflow:visible;vector-effect:none;fill:url(#linearGradient32);enable-background:accumulate;stop-color:#000000;stop-opacity:1"
       id="path493" /><path
       d="m 710.54838,428.96002 -5.22397,59.9028 22.45031,26.1922 22.45082,-25.44393 -4.86843,-60.50948 c -5.59008,0.87772 -11.26943,1.34307 -16.99897,1.34307 -6.00761,0 -11.95798,-0.52071 -17.80976,-1.48466 z"
       style="baseline-shift:baseline;display:inline;overflow:visible;vector-effect:none;fill:url(#linearGradient28);enable-background:accumulate;stop-color:#000000;stop-opacity:1"
       id="path492" /><path
       d="m 728.03155,125.91495 -22.45083,25.44392 4.93665,61.35336 c 5.86179,-0.96732 11.82251,-1.49035 17.84077,-1.49034 5.67974,-1e-5 11.31066,0.45505 16.85375,1.31774 l 5.27048,-60.43248 z"
       style="baseline-shift:baseline;display:inline;overflow:visible;vector-effect:none;fill:url(#linearGradient36);enable-background:accumulate;stop-color:#000000;stop-opacity:1"
       id="path491" /><path
       style="fill:url(#linearGradient17);fill-opacity:0;stroke:none;stroke-width:0.465;stroke-linecap:butt;stroke-linejoin:miter;stroke-dasharray:none;stroke-opacity:1"
       d="m 705.2775,345.27214 -9.54153,6.36101 -11.97366,-17.77342 10.7576,-5.79975 v -14.59292 l -10.28988,-6.17392 10.66406,-17.96051 9.9157,5.7062 12.53494,-7.39 0.18709,-11.03823 20.39266,-0.18709 0.1637,11.31886 12.95589,7.71741 9.82216,-5.3788 10.43019,17.25893 -9.49475,5.28526 0.0468,15.80899 9.54152,5.61266 -10.66406,17.21216 -9.63506,-5.51912 -13.00267,7.57709 -0.14031,11.41241 -20.20558,-0.0935 v -12.39463 z"
       id="path2" /><path
       id="path38"
       style="fill:url(#linearGradient39);stroke:none;stroke-width:0.264583px;stroke-linecap:butt;stroke-linejoin:miter;stroke-opacity:1"
       d="m 613.83335,372.53349 c 3.26796,14.16404 10.62512,27.32625 20.79253,38.33512 l -16.39125,40.29574 37.66592,-22.95002 c 12.0042,7.2859 25.7248,12.1836 40.21822,13.77228 -8.19564,-3.18351 -15.62996,-6.50978 -22.48028,-10.13168 l 4.83588,-8.42016 -10.52494,5.26221 c -3.04626,-1.77425 -5.97879,-3.62054 -8.80722,-5.55986 l 4.3677,-22.48649 12.72222,-14.96756 -3.92896,-3.18017 -12.72222,15.15412 -20.7114,8.28476 c -2.68621,-2.78865 -5.30654,-5.73462 -7.87911,-8.86922 l 4.87412,-9.74876 -8.6496,4.96714 c -4.52254,-5.92819 -8.94008,-12.46565 -13.38161,-19.75745 z" /><path
       id="path38-6"
       style="fill:url(#linearGradient40);stroke:none;stroke-width:0.264583px;stroke-linecap:butt;stroke-linejoin:miter;stroke-opacity:1"
       d="m 837.95899,189.81411 -37.60391,22.91229 c -12.07866,-7.39191 -25.9138,-12.35936 -40.53396,-13.96193 8.31485,3.22981 15.84943,6.60484 22.78207,10.28826 l -4.84415,8.43566 10.52908,-5.26428 c 3.03541,1.77717 5.95293,3.63092 8.77207,5.57382 l -4.37648,22.52989 -12.72222,14.96705 3.92896,3.18068 12.72171,-15.15411 20.68556,-8.27443 c 2.68857,2.80432 5.31313,5.76308 7.88892,8.91625 l -4.81831,9.6361 8.5385,-4.90306 c 4.45922,5.86525 8.81761,12.32706 13.19971,19.52129 -3.24213,-14.0521 -10.51054,-27.11743 -20.55327,-38.07313 z" /><path
       id="path478"
       style="baseline-shift:baseline;display:inline;overflow:visible;vector-effect:none;fill:url(#linearGradient62);enable-background:accumulate;stop-color:#000000;stop-opacity:1"
       d="m 727.86928,236.87975 c -46.32173,0 -83.87291,37.55119 -83.87291,83.87292 0,46.32173 37.55118,83.87291 83.87291,83.87291 46.32174,0 83.87292,-37.55118 83.87292,-83.87291 0,-46.32173 -37.55118,-83.87292 -83.87292,-83.87292 z m 0.26407,7.85999 c 7.26271,0 14.27837,1.04117 20.92947,2.94504 l -1.48725,11.99616 23.58358,13.52166 9.56169,-7.27708 c 10.04895,9.65455 17.45697,22.03456 21.00233,35.9668 l -11.38173,4.81573 0.0816,27.1849 11.47527,4.80643 c -3.47426,14.26622 -10.97649,26.94551 -21.23643,36.78173 l -9.46712,-7.20576 -23.58358,13.52165 1.4702,11.86336 c -6.6566,1.90729 -13.67861,2.95021 -20.94808,2.95021 -7.3623,0 -14.47146,-1.06803 -21.20336,-3.02255 l 1.49139,-12.02718 -23.58358,-13.52165 -9.47487,7.21144 c -10.00448,-9.67561 -17.36194,-22.06548 -20.86591,-35.99522 l 11.15849,-4.72115 -0.0817,-27.18491 -11.20655,-4.69377 c 3.43991,-14.12905 10.82899,-26.70323 20.93671,-36.49958 l 9.56892,7.28328 23.58358,-13.52166 -1.50741,-12.16101 c 6.72625,-1.95096 13.82892,-3.01687 21.18424,-3.01687 z" /></g><g
     id="layer2"
     transform="translate(-524.77057,-117.26483)"><path
       d="m 717.55777,275.56369 v 12.17704 l -12.3672,7.15202 -10.52701,-6.07767 -10.45104,18.10174 10.29343,5.94279 0.0109,15.09572 -10.30428,5.94899 10.45104,18.10174 10.26139,-5.92419 12.63282,7.28121 v 11.89436 h 20.90208 v -11.55071 l 13.29273,-7.68739 9.92963,5.73299 10.45104,-18.10174 -10.04797,-5.8012 -0.0109,-14.87196 10.0583,-5.8074 -10.45104,-18.10173 -10.17457,5.87406 -13.04727,-7.51996 v -11.85871 z m 10.57558,4.43178 4.49792,7.8052 -3.30729,3.57188 -0.1323,12.17083 12.8323,7.67292 10.58333,-6.08542 1.5875,-5.02708 8.99583,0.13229 -4.10104,7.9375 -5.15937,-0.79375 -10.45105,5.82083 -0.26458,14.4198 10.58333,6.35 4.63021,-1.32292 5.15938,8.20208 h -9.39271 l -1.71979,-4.7625 -10.18646,-5.95312 -12.56771,7.01146 -0.39687,12.30312 3.83645,4.49792 -5.02708,7.54062 -4.7625,-7.80521 3.43958,-4.10104 -0.13229,-12.30312 -12.17083,-7.27604 -11.77396,6.74687 -0.26458,4.7625 -9.12813,-0.26458 4.10104,-8.06979 3.96875,1.19062 11.37709,-6.35 0.26458,-14.94896 -11.37708,-6.61458 -3.57188,1.5875 -5.29166,-7.40833 8.73125,-0.26459 1.5875,4.49792 10.84791,6.21771 12.56771,-7.27604 0.26458,-12.56771 -3.43958,-3.96875 z m -13.01006,15.80627 3.9579,6.79751 -1.69757,0.98857 -3.9579,-6.79751 z m 25.93227,0.37413 1.69757,0.98857 -3.9579,6.79752 -1.69757,-0.98857 z m -40.78252,23.32468 h 7.86567 v 1.96474 h -7.86567 z m 47.86529,0.0429 h 7.86619 v 1.96474 h -7.86619 z m -30.65653,17.50332 1.69758,0.98857 -3.9579,6.79752 -1.69757,-0.98857 z m 21.4111,0.37466 3.95842,6.79752 -1.69809,0.98857 -3.9579,-6.79752 z"
       style="baseline-shift:baseline;display:inline;overflow:visible;vector-effect:none;fill:url(#linearGradient50);enable-background:accumulate;stop-color:#000000;stop-opacity:1"
       id="path486" /><path
       d="m 727.99382,306.31169 -12.23697,7.10086 0.031,14.14745 12.26747,7.04712 12.23698,-7.10086 -0.031,-14.14746 z m -0.10128,4.67413 8.16022,4.68757 0.0207,9.4108 -8.14007,4.72322 -8.16022,-4.68757 -0.0202,-9.41079 z"
       style="baseline-shift:baseline;display:inline;overflow:visible;vector-effect:none;fill:url(#linearGradient487);enable-background:accumulate;stop-color:#000000;stop-opacity:1"
       id="path489" /></g></svg>
